<?xml version="1.0" encoding="UTF-8"?>
<svg id="Calque_2" data-name="Calque 2" xmlns="http://www.w3.org/2000/svg" viewBox="0 0 632.86 572.49">
  <defs>
    <style>
      .cls-1 {
        fill: #1d1d1b;
        stroke-width: 0px;
      }
    </style>
  </defs>
  <path class="cls-1" d="M84.7,187.11c-.14-.48-.44-.71-.92-.71h-14.99c-.48,0-.78.24-.92.71l-1.63,8.47c-.14.68-.51,1.02-1.12,1.02h-8.57c-.61,0-.82-.44-.61-1.33l15.4-79.46c.14-.61.48-.92,1.02-.92h7.85c.54,0,.88.31,1.02.92l15.4,79.46c.14.88-.1,1.33-.71,1.33h-8.47c-.61,0-.99-.34-1.12-1.02l-1.63-8.47ZM71.24,176.2h10.2c.75,0,1.05-.37.92-1.12l-5.1-26.21c-.14-.48-.48-.71-1.02-.71s-.85.24-.92.71l-5.1,26.21c-.07.75.27,1.12,1.02,1.12Z"/>
  <path class="cls-1" d="M209.85,195.58c-.27.68-.75,1.02-1.43,1.02h-9.69c-.68,0-.88-.34-.61-1.02l14.48-39.88-14.48-39.88c-.27-.68-.07-1.02.61-1.02h9.69c.68,0,1.16.34,1.43,1.02l8.67,23.77,8.67-23.77c.2-.68.65-1.02,1.33-1.02h9.69c.68,0,.92.34.71,1.02l-14.59,39.88,14.59,39.88c.2.68-.04,1.02-.71,1.02h-9.69c-.68,0-1.12-.34-1.33-1.02l-8.67-23.77-8.67,23.77Z"/>
  <path class="cls-1" d="M350.51,150.7h24.48c.68,0,1.02.34,1.02,1.02v8.16c0,.68-.34,1.02-1.02,1.02h-24.48v25.5h29.78c.68,0,1.02.34,1.02,1.02v8.16c0,.68-.34,1.02-1.02,1.02h-38.96c-.68,0-1.02-.34-1.02-1.02v-79.36c0-.68.34-1.02,1.02-1.02h38.96c.68,0,1.02.34,1.02,1.02v7.96c0,.68-.34,1.02-1.02,1.02h-29.78v25.5Z"/>
  <path class="cls-1" d="M492.9,186.4h29.58c.68,0,1.02.34,1.02,1.02v8.16c0,.68-.34,1.02-1.02,1.02h-38.76c-.68,0-1.02-.34-1.02-1.02v-79.56c0-.68.34-1.02,1.02-1.02h8.16c.68,0,1.02.34,1.02,1.02v70.38Z"/>
  <path class="cls-1" d="M84.7,309.51c-.14-.47-.44-.71-.92-.71h-14.99c-.48,0-.78.24-.92.71l-1.63,8.47c-.14.68-.51,1.02-1.12,1.02h-8.57c-.61,0-.82-.44-.61-1.33l15.4-79.46c.14-.61.48-.92,1.02-.92h7.85c.54,0,.88.31,1.02.92l15.4,79.46c.14.88-.1,1.33-.71,1.33h-8.47c-.61,0-.99-.34-1.12-1.02l-1.63-8.47ZM71.24,298.6h10.2c.75,0,1.05-.37.92-1.12l-5.1-26.21c-.14-.48-.48-.71-1.02-.71s-.85.24-.92.71l-5.1,26.21c-.07.75.27,1.12,1.02,1.12Z"/>
  <path class="cls-1" d="M208.32,308.8h29.58c.68,0,1.02.34,1.02,1.02v8.16c0,.68-.34,1.02-1.02,1.02h-38.76c-.68,0-1.02-.34-1.02-1.02v-79.56c0-.68.34-1.02,1.02-1.02h8.16c.68,0,1.02.34,1.02,1.02v70.38Z"/>
  <path class="cls-1" d="M350.51,273.1h24.48c.68,0,1.02.34,1.02,1.02v8.16c0,.68-.34,1.02-1.02,1.02h-24.48v25.5h29.78c.68,0,1.02.34,1.02,1.02v8.16c0,.68-.34,1.02-1.02,1.02h-38.96c-.68,0-1.02-.34-1.02-1.02v-79.36c0-.68.34-1.02,1.02-1.02h38.96c.68,0,1.02.34,1.02,1.02v7.96c0,.68-.34,1.02-1.02,1.02h-29.78v25.5Z"/>
  <path class="cls-1" d="M494.43,317.98c-.27.68-.75,1.02-1.43,1.02h-9.69c-.68,0-.88-.34-.61-1.02l14.48-39.88-14.48-39.88c-.27-.68-.07-1.02.61-1.02h9.69c.68,0,1.16.34,1.43,1.02l8.67,23.77,8.67-23.77c.2-.68.65-1.02,1.33-1.02h9.69c.68,0,.92.34.71,1.02l-14.59,39.88,14.59,39.88c.2.68-.04,1.02-.71,1.02h-9.69c-.68,0-1.12-.34-1.33-1.02l-8.67-23.77-8.67,23.77Z"/>
  <path class="cls-1" d="M96.74,421.71c0,5.44-2.06,10.08-6.17,13.92-4.12,3.84-8.89,5.76-14.33,5.76h-19.48c-.68,0-1.02-.34-1.02-1.02v-79.36c0-.68.34-1.02,1.02-1.02h19.48c5.57-.13,10.39,1.77,14.43,5.71,4.04,3.94,6.07,8.67,6.07,14.18v41.82ZM76.13,431.2c2.86,0,5.29-1,7.29-3.01,2-2,3.04-4.4,3.11-7.19v-40.8c-.07-2.79-1.11-5.18-3.11-7.19-2.01-2-4.44-3.01-7.29-3.01h-9.18c-.61,0-.95.27-1.02.82v59.36c0,.61.24.95.71,1.02h9.49Z"/>
  <path class="cls-1" d="M238.92,422.02c0,5.37-2.04,9.95-6.12,13.72-4.08,3.77-8.87,5.66-14.38,5.66s-10.2-1.89-14.28-5.66c-4.08-3.77-6.12-8.35-6.12-13.72v-42.84c0-5.37,2.04-9.98,6.12-13.82,4.08-3.84,8.84-5.76,14.28-5.76s10.3,1.96,14.38,5.86c4.08,3.91,6.12,8.42,6.12,13.52v43.04ZM218.52,431.2c2.72,0,5.08-.87,7.09-2.6,2-1.73,3.01-3.99,3.01-6.78v-42.84c.07-2.58-.95-4.76-3.06-6.53-2.11-1.77-4.49-2.65-7.14-2.65s-5.1.87-7.14,2.6-3.06,4-3.06,6.78v42.64c.07,2.86,1.04,5.13,2.91,6.83,1.87,1.7,4.3,2.55,7.29,2.55h.1Z"/>
  <path class="cls-1" d="M340.31,440.38v-79.76c0-.68.34-1.02,1.02-1.02h8.16c.54,0,.88.27,1.02.82l20.5,52.33v-52.12c0-.68.34-1.02,1.02-1.02h8.16c.68,0,1.02.34,1.02,1.02v79.76c0,.68-.34,1.02-1.02,1.02h-8.16c-.48,0-.82-.24-1.02-.71l-20.5-52.12v51.82c0,.68-.34,1.02-1.02,1.02h-8.16c-.68,0-1.02-.34-1.02-1.02Z"/>
  <path class="cls-1" d="M511.57,431.91c-.14-.47-.44-.71-.92-.71h-14.99c-.48,0-.78.24-.92.71l-1.63,8.47c-.14.68-.51,1.02-1.12,1.02h-8.57c-.61,0-.82-.44-.61-1.33l15.4-79.46c.14-.61.48-.92,1.02-.92h7.85c.54,0,.88.31,1.02.92l15.4,79.46c.13.88-.1,1.33-.71,1.33h-8.47c-.61,0-.99-.34-1.12-1.02l-1.63-8.47ZM498.11,421h10.2c.75,0,1.05-.37.92-1.12l-5.1-26.21c-.14-.47-.48-.71-1.02-.71s-.85.24-.92.71l-5.1,26.21c-.07.75.27,1.12,1.02,1.12Z"/>
</svg>